<?xml version="1.0" encoding="UTF-8"?>
<svg id="Layer_1" xmlns="http://www.w3.org/2000/svg" version="1.1" viewBox="0 0 148.0977 43.4861">
  <!-- Generator: Adobe Illustrator 29.2.1, SVG Export Plug-In . SVG Version: 2.1.0 Build 116)  -->
  <defs>
    <style>
      .st0 {
        fill: #a6a7a9;
      }

      .st1 {
        fill: #ff6d04;
      }
    </style>
  </defs>
  <g>
    <path class="st0" d="M5.8564,33.5275l1.9809,1.1437,2.3111,1.3343.6603.3813.478.2758,8.3955-4.847v-8.3407c0-1.0681.5698-2.0553,1.4949-2.5893l7.2233-4.1704-12.8217-7.4026-1.9809-1.1436,1.9809-1.1438,2.311-1.3343.6603-.3812.6603.3812,14.1422,8.1651.2823-.1631c.818-.4722,1.8403.1181,1.8403,1.0625v.326l1.3206.7625v-2.2113c0-1.0919-.5825-2.101-1.5283-2.6469L21.2103,2.8699c-.9456-.5461-2.1107-.5461-3.0563,0l-7.3453,4.2408v26.6074l-1.981-1.1437-2.3111-1.3341-.6603-.3814V9.9698l-1.7597,1.016c-.9456.5459-1.5282,1.555-1.5282,2.6469v16.232c0,1.0919.5826,2.1008,1.5282,2.6467l1.7597,1.016ZM5.8564,33.5275"/>
    <path class="st0" d="M35.4752,20.7997v8.3409c0,1.0682-.5698,2.0552-1.495,2.5892l-12.4578,7.1926c-.818.4724-1.8404-.1179-1.8404-1.0623v-.3262l-3.4431,1.988,1.915,1.1057c.9456.546,2.1107.546,3.0563,0l14.0573-8.1161c.9457-.5459,1.5282-1.5549,1.5282-2.6467v-8.3026l-1.3206-.7625Z"/>
    <path class="st0" d="M44.7146,13.5514h1.9199c.3843,0,.6719.1919.792.5762l4.6807,12.8652c.168.5039.5518.5273.7197,0l4.6328-12.8892c.144-.3604.4077-.5522.792-.5522h1.6562c.5039,0,.7437.312.5518.8159l-6.1685,16.0093c-.1919.4561-.5278.6963-1.0322.6963h-1.7998c-.5044,0-.8403-.2402-1.0083-.6963l-6.2646-16.0093c-.1919-.5039.0239-.8159.5283-.8159Z"/>
    <path class="st0" d="M69.531,13.3111c5.3047,0,9.3613,3.7446,9.3613,8.9531,0,5.2803-4.0566,9.0488-9.3613,9.0488-5.2803,0-9.3125-3.7686-9.3125-9.0488,0-5.2085,4.0322-8.9531,9.3125-8.9531ZM69.531,28.649c3.6006,0,6.2646-2.6162,6.2646-6.3848,0-3.7207-2.6641-6.2886-6.2646-6.2886-3.5762,0-6.2402,2.5679-6.2402,6.2886,0,3.7686,2.6641,6.3848,6.2402,6.3848Z"/>
    <path class="st0" d="M78.2146,30.233l5.8086-7.7285c.1914-.2646.168-.5044,0-.7446l-5.2812-7.3687c-.3594-.4561-.1436-.8398.4082-.8398h1.9209c.3594,0,.624.1201.8398.4321l3.9121,5.4004c.2158.312.5283.312.7441,0l3.8398-5.4004c.2168-.312.4805-.4321.8408-.4321h1.7275c.5762,0,.7686.3838.4326.8398l-5.3525,7.3447c-.168.2402-.168.5039,0,.7441l5.5918,7.7529c.3369.4561.1445.8398-.4316.8398h-1.9443c-.3594,0-.624-.1201-.8398-.4316l-4.1279-5.7129c-.2168-.3125-.5283-.3125-.7441,0l-4.2246,5.7129c-.2158.2881-.4805.4316-.8398.4316h-1.8721c-.5762,0-.7441-.3838-.4082-.8398Z"/>
    <path class="st0" d="M95.2302,30.2086v-15.793c0-.5522.2881-.8643.8643-.8643h8.4248c.4561,0,.7197.2642.7197.6958v1.1284c0,.4561-.2637.6958-.7197.6958h-5.8809c-.2637,0-.4316.168-.4316.4321v4.1523c0,.2642.168.4321.4316.4321h5.4248c.4316,0,.6963.2642.6963.6963v1.1274c0,.4561-.2646.6963-.6963.6963h-5.4248c-.2637,0-.4316.168-.4316.4326v4.0557c0,.2646.168.4326.4316.4326h6.0723c.4561,0,.6963.2637.6963.6953v1.1523c0,.4326-.2402.6963-.6963.6963h-8.6162c-.5762,0-.8643-.3125-.8643-.8643Z"/>
    <path class="st0" d="M107.5418,30.1852v-15.938c0-.4316.2402-.6958.6963-.6958h1.6084c.4561,0,.7197.2642.7197.6958v13.6577c0,.2637.168.4316.4316.4316h7.2012c.4316,0,.6953.2637.6953.6963v1.3438c0,.4326-.2637.6963-.6953.6963h-9.7695c-.5752,0-.8877-.3125-.8877-.8877Z"/>
  </g>
  <g>
    <path class="st1" d="M9.4881,4.9639c0-.2008.1252-.3032.1999-.3464.044-.0254.1147-.0558.2011-.0558.06,0,.1276.0146.1988.0559l1.1987.692,2.3112-1.3343-2.3543-1.3593c-.8486-.4897-1.8622-.49-2.7111,0-.8487.4901-1.3553,1.3677-1.3553,2.3478v25.1326l2.311,1.3343V4.9639Z"/>
    <path class="st1" d="M10.0879,38.8798c-.1738.1004-.325.0432-.4,0-.0746-.043-.1999-.1455-.1999-.3463v-1.3842l-2.311-1.3344v2.7186c0,.9801.5067,1.8578,1.3554,2.3479.4245.245.89.3673,1.3556.3673s.9309-.1223,1.3554-.3673l22.9112-13.228v-2.6686l-24.0667,13.8951Z"/>
    <path class="st1" d="M40.3153,19.401L18.55,6.8346l-2.3111,1.3343,22.921,13.2334c.1739.1005.1999.2602.1999.3463,0,.0863-.026.2459-.1999.3463l-1.0435.6024v2.6685l2.1989-1.2697c.8489-.4899,1.3554-1.3677,1.3554-2.3477s-.5066-1.8577-1.3554-2.3476h0Z"/>
    <path class="st1" d="M121.5359,25.9361h1.6084c.4082,0,.6475.168.792.5527.5283,1.3438,1.8477,2.2314,3.4326,2.2314,1.752,0,3.4316-1.1279,3.4316-3.1201-.0234-1.7998-1.2002-3.0244-3.6484-3.0244h-4.0557c-.8398,0-1.2959-.4556-1.2959-1.2959v-6.8643c0-.5522.3115-.8643.8633-.8643h9.0488c.4326,0,.6963.2642.6963.6958v1.2964c0,.4561-.2637.7202-.6963.7202h-6.5527c-.4795,0-.7676.2637-.7676.7681v2.376c0,.4321.2402.6719.6719.6719h2.1367c4.3916,0,6.6484,2.208,6.6484,5.5205.0234,3.4561-2.6406,5.7129-6.4805,5.7129-3.4082,0-5.5449-1.9922-6.4326-4.585-.168-.4795.0957-.792.5996-.792Z"/>
    <path class="st1" d="M135.3601,18.2799v-1.248c0-.4082.2158-.6484.6484-.7441,1.6074-.2881,3.3359-1.1523,4.3203-2.3281.2393-.2642.4795-.4082.8633-.4082h.4326c.4316,0,.6963.2642.6963.6958v13.4409c0,.5049.2871.793.7676.793h1.8965c.4561,0,.7197.2393.7197.6953v1.2002c0,.4326-.2637.6963-.7197.6963h-8.6895c-.4316,0-.6953-.2637-.6953-.6963v-1.2002c0-.4561.2637-.6953.6953-.6953h2.2568c.5039,0,.7676-.2881.7676-.793v-9.0005c0-.5278-.2881-.7197-.7197-.5039-.7686.3843-1.6318.6479-2.4961.7681-.4805.0723-.7441-.2158-.7441-.6719Z"/>
  </g>
</svg>