<?xml version="1.0" encoding="UTF-8" standalone="no"?>
<svg
   viewBox="0 0 143.67 130.83"
   version="1.1"
   id="svg19"
   sodipodi:docname="logo_white.svg"
   inkscape:version="1.3.2 (091e20ef0f, 2023-11-25, custom)"
   xmlns:inkscape="http://www.inkscape.org/namespaces/inkscape"
   xmlns:sodipodi="http://sodipodi.sourceforge.net/DTD/sodipodi-0.dtd"
   xmlns="http://www.w3.org/2000/svg"
   xmlns:svg="http://www.w3.org/2000/svg"
   xmlns:rdf="http://www.w3.org/1999/02/22-rdf-syntax-ns#"
   xmlns:cc="http://creativecommons.org/ns#"
   xmlns:dc="http://purl.org/dc/elements/1.1/">
  <defs
     id="defs19" />
  <sodipodi:namedview
     id="namedview19"
     pagecolor="#ff862c"
     bordercolor="#666666"
     borderopacity="1.0"
     inkscape:showpageshadow="2"
     inkscape:pageopacity="0.0"
     inkscape:pagecheckerboard="0"
     inkscape:deskcolor="#d1d1d1"
     inkscape:zoom="6.3288236"
     inkscape:cx="71.814294"
     inkscape:cy="102.3887"
     inkscape:window-width="1920"
     inkscape:window-height="1023"
     inkscape:window-x="0"
     inkscape:window-y="0"
     inkscape:window-maximized="1"
     inkscape:current-layer="svg19" />
  <title
     id="title1">logo_white</title>
  <path
     d="M25.06,82.8,35.59,70.66h7.09V103.4H34.52V83L25.68,93.23H24.45L15.61,83V103.4H7.45V70.66h7.08Z"
     style="fill:#fff"
     id="path11" />
  <path
     d="M60.76,70.66V103.4H52.6V70.66Z"
     style="fill:#fff"
     id="path12" />
  <path
     d="M70.66,70.66H85.09q8.37,0,13.24,4.58a15.57,15.57,0,0,1,4.86,11.85q0,7.62-4.94,12T84.18,103.4H70.66Zm8.15,6V97.4h5.32c3.46,0,6.1-.94,7.93-2.84a10.42,10.42,0,0,0,2.74-7.51A10.29,10.29,0,0,0,92,79.44q-2.77-2.77-8-2.78Z"
     style="fill:#fff"
     id="path13" />
  <path
     d="M136.55,97.4v6h-25V70.66h8.16V97.4Z"
     style="fill:#fff"
     id="path14" />
  <path
     d="M57.27,52.44a7.83,7.83,0,1,1-7.83-7.83A7.83,7.83,0,0,1,57.27,52.44Z"
     style="fill:#fff"
     id="path15" />
  <line
     x1="49.44"
     y1="52.44"
     x2="90.93"
     y2="34.55"
     style="fill:none;stroke:#fff;stroke-miterlimit:10;stroke-width:2px"
     id="line15" />
  <path
     d="M101,34.55a10.06,10.06,0,1,1-10.06-10A10.06,10.06,0,0,1,101,34.55Z"
     style="fill:#fff"
     id="path16" />
  <path
     d="M30.05,38.32a5.72,5.72,0,1,1-5.72-5.71A5.72,5.72,0,0,1,30.05,38.32Z"
     style="fill:#fff"
     id="path17" />
  <line
     x1="21.58"
     y1="36.6"
     x2="49.93"
     y2="52.55"
     style="fill:none;stroke:#fff;stroke-miterlimit:10;stroke-width:2px"
     id="line17" />
  <path
     d="M125.05,47.32a5.72,5.72,0,1,1-5.72-5.71A5.72,5.72,0,0,1,125.05,47.32Z"
     style="fill:#fff"
     id="path18" />
  <line
     x1="90.44"
     y1="34.44"
     x2="119.33"
     y2="47.32"
     style="fill:none;stroke:#fff;stroke-miterlimit:10;stroke-width:2px"
     id="line18" />
  <line
     x1="90.44"
     y1="33.44"
     x2="110.05"
     y2="10.04"
     style="fill:none;stroke:#fff;stroke-miterlimit:10;stroke-width:2px"
     id="line19" />
  <path
     d="M113.48,10a3.44,3.44,0,1,1-3.43-3.43A3.44,3.44,0,0,1,113.48,10Z"
     style="fill:#fff"
     id="path19" />
  <metadata
     id="metadata19">
    <rdf:RDF>
      <cc:Work
         rdf:about="">
        <dc:title>logo_white</dc:title>
      </cc:Work>
    </rdf:RDF>
  </metadata>
  <text
     xml:space="preserve"
     style="font-size:40px;line-height:1.25;font-family:'Lato Bold';-inkscape-font-specification:'Lato Bold, ';letter-spacing:0px;word-spacing:0px"
     x="-17.913652"
     y="15.28217"
     id="text19"><tspan
       sodipodi:role="line"
       id="tspan19"></tspan></text>
  <text
     xml:space="preserve"
     style="font-size:15.3333px;line-height:1.25;font-family:'Lato Bold';-inkscape-font-specification:'Lato Bold, ';letter-spacing:0px;word-spacing:0px;fill:#ffffff"
     x="5.7971897"
     y="124.19271"
     id="text20"><tspan
       sodipodi:role="line"
       id="tspan20"
       x="5.7971897"
       y="124.19271"
       style="font-style:normal;font-variant:normal;font-weight:bold;font-stretch:normal;font-size:15.3333px;font-family:Lato;-inkscape-font-specification:'Lato Bold'">Salt Lake City 2025</tspan></text>
</svg>
