<?xml version="1.0" encoding="UTF-8" standalone="no"?>
<svg
   viewBox="0 0 144 137"
   version="1.1"
   id="svg54"
   sodipodi:docname="logo_white.svg"
   width="144"
   height="137"
   inkscape:version="1.3.2 (091e20ef0f, 2023-11-25, custom)"
   inkscape:export-filename="logo.png"
   inkscape:export-xdpi="400"
   inkscape:export-ydpi="400"
   xmlns:inkscape="http://www.inkscape.org/namespaces/inkscape"
   xmlns:sodipodi="http://sodipodi.sourceforge.net/DTD/sodipodi-0.dtd"
   xmlns="http://www.w3.org/2000/svg"
   xmlns:svg="http://www.w3.org/2000/svg">
  <defs
     id="defs58">
    <rect
       x="6.1243773"
       y="108.16323"
       width="121.3229"
       height="23.565696"
       id="rect1532" />
    <rect
       x="9.5832748"
       y="109.14206"
       width="125.44712"
       height="28.486874"
       id="rect1526" />
    <rect
       x="8.5935955"
       y="111.35148"
       width="105.83487"
       height="30.057011"
       id="rect442" />
  </defs>
  <sodipodi:namedview
     id="namedview56"
     pagecolor="#ff862c"
     bordercolor="#000000"
     borderopacity="0.25"
     inkscape:showpageshadow="2"
     inkscape:pageopacity="1"
     inkscape:pagecheckerboard="0"
     inkscape:deskcolor="#d1d1d1"
     showgrid="false"
     inkscape:zoom="6.1538462"
     inkscape:cx="60.775"
     inkscape:cy="73.287499"
     inkscape:window-width="3840"
     inkscape:window-height="2097"
     inkscape:window-x="0"
     inkscape:window-y="0"
     inkscape:window-maximized="1"
     inkscape:current-layer="svg54" />
  <path
     d="M 25.4,82.8 35.924,70.66 h 7.09 v 32.742 H 34.855 V 82.967 L 26.009,93.233 H 24.784 L 15.94,82.967 v 20.438 H 7.784 V 70.663 h 7.082 z"
     fill="#ffffff"
     id="path28" />
  <path
     d="m 61.09,70.663 v 32.742 H 52.934 V 70.663 Z"
     fill="#ffffff"
     id="path30" />
  <path
     d="m 70.99,70.663 h 14.438 q 8.367,0 13.23,4.582 a 15.542,15.542 0 0 1 4.863,11.847 q 0,7.617 -4.933,11.965 -4.933,4.348 -14.074,4.348 H 70.99 Z m 8.156,6 v 20.742 h 5.321 q 5.18,0 7.922,-2.848 a 10.373,10.373 0 0 0 2.742,-7.512 10.28,10.28 0 0 0 -2.777,-7.605 q -2.778,-2.778 -7.981,-2.777 z"
     fill="#ffffff"
     id="path32" />
  <path
     d="m 136.883,97.405 v 6 H 111.922 V 70.663 h 8.156 v 26.742 z"
     fill="#ffffff"
     id="path34" />
  <path
     d="m 57.608,52.438 a 7.832,7.832 0 1 1 -7.832,-7.832 7.831,7.831 0 0 1 7.832,7.832 z"
     fill="#ffffff"
     id="path36" />
  <line
     x1="49.776001"
     y1="52.438"
     x2="91.264999"
     y2="34.551998"
     fill="none"
     stroke="#ffffff"
     stroke-miterlimit="10"
     stroke-width="2"
     id="line38" />
  <path
     d="M 101.319,34.552 A 10.054,10.054 0 1 1 91.265,24.5 10.054,10.054 0 0 1 101.319,34.552 Z"
     fill="#ffffff"
     id="path40" />
  <path
     d="m 30.379,38.324 a 5.717,5.717 0 1 1 -5.716,-5.718 5.717,5.717 0 0 1 5.716,5.718 z"
     fill="#ffffff"
     id="path42" />
  <line
     x1="21.915001"
     y1="36.604"
     x2="50.264999"
     y2="52.551998"
     fill="none"
     stroke="#ffffff"
     stroke-miterlimit="10"
     stroke-width="2"
     id="line44" />
  <path
     d="m 125.38,47.324 a 5.718,5.718 0 1 1 -5.717,-5.718 5.718,5.718 0 0 1 5.717,5.718 z"
     fill="#ffffff"
     id="path46" />
  <line
     x1="90.776001"
     y1="34.438"
     x2="119.662"
     y2="47.324001"
     fill="none"
     stroke="#ffffff"
     stroke-miterlimit="10"
     stroke-width="2"
     id="line48" />
  <line
     x1="90.776001"
     y1="33.438"
     x2="110.381"
     y2="10.042"
     fill="none"
     stroke="#ffffff"
     stroke-miterlimit="10"
     stroke-width="2"
     id="line50" />
  <path
     d="m 113.816,10.042 a 3.436,3.436 0 1 1 -3.434,-3.436 3.435,3.435 0 0 1 3.434,3.436 z"
     fill="#ffffff"
     id="path52" />
  <text
     xml:space="preserve"
     id="text440"
     style="font-weight:100;font-size:24px;font-family:'IBM Plex Sans';-inkscape-font-specification:'IBM Plex Sans Thin';white-space:pre;shape-inside:url(#rect442);shape-padding:0.769971;display:inline;fill:#ffffff;stroke:#ffffff"
     transform="matrix(1.2887089,0,0,1.2887089,-5.4789855,-40.77846)" />
  <text
     xml:space="preserve"
     id="text1524"
     style="font-style:normal;font-variant:normal;font-weight:normal;font-stretch:normal;font-size:26.6667px;font-family:'Gill Sans MT';-inkscape-font-specification:'Gill Sans MT';white-space:pre;shape-inside:url(#rect1526);display:inline;fill:#ffffff;stroke:#ffffff" />
  <path
     style="font-weight:bold;font-size:12.4536px;font-family:'Gill Sans MT';-inkscape-font-specification:'Gill Sans MT Bold';letter-spacing:0px;white-space:pre;shape-padding:0.0719548;fill:#ffffff;stroke:#ffffff;stroke-width:0"
     d="m 12.910534,111.18885 v 1.66007 q -1.690479,-0.76011 -2.69382,-0.76011 -0.5716011,0 -0.9121293,0.19459 -0.3344472,0.18851 -0.3344472,0.50471 0,0.24324 0.2432344,0.46215 0.2432343,0.21891 1.1857671,0.56552 0.942534,0.34661 1.508054,0.64457 0.565519,0.29796 0.972937,0.83916 0.413498,0.54119 0.413498,1.36819 0,1.17969 -0.899967,1.87899 -0.893886,0.6993 -2.359373,0.6993 -1.5810236,0 -3.0647532,-0.82092 v -1.83034 q 0.8513203,0.5716 1.5080531,0.83308 0.6567328,0.26148 1.3925168,0.26148 1.2465763,0 1.2465763,-0.78444 0,-0.26755 -0.249315,-0.50471 -0.249316,-0.23715 -1.2040106,-0.57768 -0.948614,-0.34053 -1.5080531,-0.63241 -0.5533582,-0.29188 -0.9607757,-0.83308 -0.4013368,-0.54119 -0.4013368,-1.38643 0,-1.09456 0.8817246,-1.76345 0.8817246,-0.67498 2.3593736,-0.67498 1.362112,0 2.876246,0.65674 z m 7.418649,6.53084 v 1.00334 q -0.899967,0.52296 -1.690479,0.52296 -0.85132,0 -1.009423,-0.64458 -0.942533,0.64458 -1.891147,0.64458 -0.668894,0 -1.137121,-0.41958 -0.468226,-0.42566 -0.468226,-0.9851 0,-0.74795 0.480388,-1.20401 0.486469,-0.46215 2.930974,-1.18577 0.06081,-0.96078 -0.997261,-0.96078 -1.149282,0 -2.116139,0.96078 v -1.47157 q 1.13104,-0.6993 2.487072,-0.6993 2.432344,0 2.432344,1.74521 v 2.61477 q 0,0.40133 0.297962,0.40133 0.224991,0 0.681056,-0.32228 z m -2.785034,0.0243 v -1.38643 q -0.906048,0.3162 -1.246576,0.5716 -0.334447,0.24931 -0.334447,0.63849 0,0.24931 0.170264,0.43174 0.170264,0.17634 0.413498,0.17634 0.510793,0 0.997261,-0.43174 z m 5.375481,-7.10244 v 8.49496 h -1.806016 v -8.49496 z m 5.655198,2.75463 v 1.23441 h -2.091816 v 2.36546 q 0,0.42566 0.231073,0.67497 0.237153,0.24324 0.650652,0.24324 0.559439,0 1.210091,-0.33445 v 1.30738 q -0.863482,0.35878 -1.672236,0.35878 -1.05807,0 -1.641832,-0.54728 -0.583763,-0.54728 -0.583763,-1.60535 v -2.46275 h -0.820916 v -0.35269 l 2.40194,-2.68774 h 0.224991 v 1.80602 z m 11.067164,4.18363 v 1.5567 h -6.476116 v -8.49496 h 2.116139 v 6.93826 z m 6.847049,0.13986 v 1.00334 q -0.899968,0.52296 -1.690479,0.52296 -0.851321,0 -1.009423,-0.64458 -0.942533,0.64458 -1.891147,0.64458 -0.668895,0 -1.137121,-0.41958 -0.468226,-0.42566 -0.468226,-0.9851 0,-0.74795 0.480388,-1.20401 0.486469,-0.46215 2.930974,-1.18577 0.06081,-0.96078 -0.997261,-0.96078 -1.149282,0 -2.116139,0.96078 v -1.47157 q 1.13104,-0.6993 2.487072,-0.6993 2.432343,0 2.432343,1.74521 v 2.61477 q 0,0.40133 0.297962,0.40133 0.224992,0 0.681057,-0.32228 z m -2.785034,0.0243 v -1.38643 q -0.906048,0.3162 -1.246576,0.5716 -0.334447,0.24931 -0.334447,0.63849 0,0.24931 0.170264,0.43174 0.170264,0.17634 0.413498,0.17634 0.510792,0 0.997261,-0.43174 z m 5.375479,-7.10244 v 5.59439 h 0.02432 l 2.231675,-2.83976 h 2.116139 l -2.243837,2.83976 2.341131,2.90057 h -2.213433 l -2.231675,-2.8276 h -0.02432 v 2.8276 h -1.806015 v -8.49496 z m 10.25841,6.71327 v 1.13712 q -1.033746,0.75403 -2.560042,0.75403 -1.514134,0 -2.420182,-0.80876 -0.906048,-0.81483 -0.906048,-2.15262 0,-1.31347 0.851321,-2.15871 0.85132,-0.84524 2.170866,-0.84524 1.325628,0 2.170867,0.89389 0.851321,0.8878 0.796593,2.3837 h -4.122823 q 0.05473,0.77835 0.553358,1.19792 0.498631,0.41958 1.337789,0.41958 1.015504,0 2.128301,-0.82091 z m -3.982963,-1.74521 h 2.493153 q -0.145941,-1.25266 -1.246576,-1.25266 -1.112798,0 -1.246577,1.25266 z m 16.831818,0.93645 v 1.85467 q -1.593185,0.84524 -3.338392,0.84524 -2.26208,0 -3.605949,-1.24658 -1.33779,-1.25266 -1.33779,-3.083 0,-1.83034 1.41076,-3.10732 1.41684,-1.27698 3.697162,-1.27698 1.818177,0 3.076915,0.74795 v 1.89115 q -1.544538,-0.86957 -2.924893,-0.86957 -1.356032,0 -2.219514,0.72971 -0.857401,0.72362 -0.857401,1.84858 0,1.13104 0.845239,1.86682 0.851321,0.73579 2.176948,0.73579 0.656733,0 1.264819,-0.17027 0.608086,-0.17634 1.812096,-0.76619 z m 1.422925,-5.01671 q 0,-0.41349 0.291881,-0.70538 0.291881,-0.29188 0.699299,-0.29188 0.413498,0 0.70538,0.29188 0.291881,0.29189 0.291881,0.70538 0,0.40742 -0.291881,0.70538 -0.291882,0.29189 -0.70538,0.29189 -0.407418,0 -0.699299,-0.29189 -0.291881,-0.29796 -0.291881,-0.70538 z m 1.903309,1.86683 v 5.74033 H 73.70697 v -5.74033 z m 5.655192,0 v 1.23441 h -2.091815 v 2.36546 q 0,0.42566 0.231072,0.67497 0.237154,0.24324 0.650652,0.24324 0.559439,0 1.210091,-0.33445 v 1.30738 q -0.863482,0.35878 -1.672236,0.35878 -1.058069,0 -1.641832,-0.54728 -0.583762,-0.54728 -0.583762,-1.60535 v -2.46275 h -0.820916 v -0.35269 l 2.401939,-2.68774 h 0.224992 v 1.80602 z m 6.518687,0 -3.843103,8.49496 H 81.92221 l 1.684398,-3.69108 -2.243837,-4.80388 h 1.927632 l 1.210091,2.94922 1.295223,-2.94922 z m 9.759779,4.00728 v 1.73305 H 91.83401 v -0.23715 q 0.772269,-0.94254 1.763449,-2.3837 0.997261,-1.44725 1.258738,-2.05533 0.261477,-0.60809 0.261477,-1.17969 0,-0.49863 -0.334447,-0.8574 -0.328367,-0.35877 -0.796593,-0.35877 -0.930371,0 -2.043168,1.05807 v -1.78169 q 1.246576,-0.80876 2.377616,-0.80876 1.252657,0 1.970198,0.64457 0.723622,0.64458 0.723622,1.76953 0,1.53846 -2.304645,4.45727 z m 4.031607,-6.87137 q 1.34995,0 2.10398,1.16145 0.76011,1.16144 0.76011,3.15596 0,2.07358 -0.73579,3.23502 -0.73578,1.16145 -2.10398,1.16145 -1.38643,0 -2.158701,-1.15537 -0.766189,-1.15536 -0.766189,-3.19853 0,-2.06749 0.77835,-3.21069 0.78443,-1.14929 2.12222,-1.14929 z m 0,7.12069 q 0.51079,0 0.74187,-0.61417 0.23107,-0.62024 0.23107,-2.32289 0,-1.41684 -0.23107,-2.0006 -0.225,-0.58984 -0.75403,-0.58984 -0.51687,0 -0.76011,0.57768 -0.23715,0.5716 -0.23715,2.27424 0,1.429 0.23715,2.05533 0.24324,0.62025 0.77227,0.62025 z m 9.71114,-0.24932 v 1.73305 h -5.61264 v -0.23715 q 0.77227,-0.94254 1.76345,-2.3837 0.99726,-1.44725 1.25874,-2.05533 0.26148,-0.60809 0.26148,-1.17969 0,-0.49863 -0.33445,-0.8574 -0.32837,-0.35877 -0.79659,-0.35877 -0.93037,0 -2.04317,1.05807 v -1.78169 q 1.24658,-0.80876 2.37762,-0.80876 1.25265,0 1.97019,0.64457 0.72363,0.64458 0.72363,1.76953 0,1.53846 -2.30465,4.45727 z m 6.2268,-6.76191 v 1.70872 h -2.71815 v 1.58102 q 1.36211,-0.0912 2.18303,0.67498 0.82092,0.76619 0.82092,1.93979 0,1.22834 -0.83916,1.96412 -0.83308,0.73579 -2.23776,0.73579 -1.23441,0 -2.05533,-0.45607 v -1.54454 q 0.97902,0.54728 1.80602,0.54728 0.58376,0 0.96077,-0.33445 0.3831,-0.34053 0.3831,-0.85132 0,-0.56552 -0.46215,-0.89388 -0.46215,-0.32837 -1.28306,-0.32837 -0.44998,0 -0.96686,0.10337 v -4.84644 z"
     id="text1530"
     transform="matrix(1.1777017,0,0,1.1777017,-1.2501351,-17.921306)"
     aria-label="Salt Lake City 2025" />
  <text
     xml:space="preserve"
     style="font-style:normal;font-variant:normal;font-weight:normal;font-stretch:normal;font-size:26.6667px;font-family:'Gill Sans MT';-inkscape-font-specification:'Gill Sans MT';fill:#ffffff;stroke:#aa0000;stroke-width:1.166;stroke-dasharray:none"
     x="18.292953"
     y="12.767953"
     id="text910"><tspan
       sodipodi:role="line"
       id="tspan908"
       x="18.292953"
       y="12.767953" /></text>
  <text
     xml:space="preserve"
     style="font-style:normal;font-variant:normal;font-weight:normal;font-stretch:normal;font-size:26.6667px;font-family:'Gill Sans MT';-inkscape-font-specification:'Gill Sans MT';fill:#ffffff;stroke:#aa0000;stroke-width:1.166;stroke-dasharray:none"
     x="22.215567"
     y="14.144433"
     id="text1016"><tspan
       sodipodi:role="line"
       id="tspan1014" /></text>
</svg>
